# xmcd
#
# Track frame offsets: 
#        150
#        15698
#        29853
#        41982
#        53250
#        59167
#        71741
#        87343
#        99563
#        118432
#
# Disc length: 1738 seconds
#
# Revision: 0
# Processed by: cddbd v1.5.2PL0 Copyright (c) Steve Scherf et al.
# Submitted via: ExactAudioCopy v0.99pb5
#
DISCID=9606c80a
DTITLE=Various Artist - Best of the Blues, Disk 1
DYEAR=2008
DGENRE=
TTITLE0=Caledonia - B.B. King
TTITLE1=Broken Hearted Blues - Buddy Guy
TTITLE2=Trouble Blues - Charles Brown
TTITLE3=Sentimental Blues - Ray Charles
TTITLE4=Big Fat Woman - Leadbelly
TTITLE5=I Cried for You - Big Maybelle
TTITLE6=Good Morning Little School Girl - Mississippi Fred McDowell
TTITLE7=I'll Just Keep on Singin' the Blues - Memphis Slim
TTITLE8=Jumpin' the Blues - Jimmy McGriff
TTITLE9=Lonesome Dog Blues - Lightnin' Hipkins
EXTD=
EXTT0=
EXTT1=
EXTT2=
EXTT3=
EXTT4=
EXTT5=
EXTT6=
EXTT7=
EXTT8=
EXTT9=
PLAYORDER=
